<?xml version="1.0" encoding="UTF-8" standalone="no"?>
<svg xmlns="http://www.w3.org/2000/svg" version="1.1" width="177.40875" height="53" id="svg3422">
  <g transform="translate(-488.43848,-664.68833)" id="layer1">
    <g transform="matrix(1.25,0,0,-1.25,522.96348,668.59921)" id="g3232">
      <path d="m 0,0 -16.689,0 c -1.27,0 -2.149,-0.386 -2.149,-1.948 l 0,-12.594 13.478,0 2.039,-5.455 -15.517,0 0,-12.986 c 0,-1.952 1.173,-2.928 3.318,-2.928 l 16.69,0 0,-3.12 -22.056,0 c -4.197,0 -6.734,1.951 -6.734,7.415 l 0,26.058 c 0,4.195 0.585,8.686 7.614,8.686 L 0,3.128 0,0 z" id="path3234" style="fill:#062849;fill-opacity:1;fill-rule:nonzero;stroke:none"/>
    </g>
    <g transform="matrix(1.25,0,0,-1.25,664.38348,668.59921)" id="g3236">
      <path d="m 0,0 -16.689,0 c -1.27,0 -2.149,-0.386 -2.149,-1.948 l 0,-12.594 13.478,0 2.039,-5.455 -15.517,0 0,-12.986 c 0,-1.952 1.173,-2.928 3.318,-2.928 l 16.691,0 0,-3.12 -22.057,0 c -4.198,0 -6.734,1.951 -6.734,6.735 l 0,26.058 c 0,4.875 0.585,9.366 7.614,9.366 L 0,3.128 0,0 z" id="path3238" style="fill:#062849;fill-opacity:1;fill-rule:nonzero;stroke:none"/>
    </g>
    <g transform="matrix(1.25,0,0,-1.25,530.01734,712.63083)" id="g3240">
      <path d="m 0,0 c 2.83,-0.395 5.858,-0.686 8.589,-0.686 4.296,0 9.174,1.172 9.174,6.443 0,8.879 -18.834,8.685 -18.834,20.59 0,9.467 8.296,12.007 14.541,12.007 3.901,0 7.22,-0.394 9.561,-0.683 l 0,-2.929 c -1.85,0.194 -3.51,0.483 -5.463,0.483 -4.391,0 -10.443,0.197 -10.443,-5.853 0,-8.002 19.422,-7.609 19.422,-21.275 0,-8.292 -6.734,-11.904 -14.541,-11.904 -4.394,0 -8.099,0.096 -12.006,1.071 L 0,0 z" id="path3242" style="fill:#062849;fill-opacity:1;fill-rule:nonzero;stroke:none"/>
    </g>
    <g transform="matrix(1.25,0,0,-1.25,570.03946,665.45233)" id="g3244">
      <path d="m 0,0 0,-41.548 8.78,0 0,35.429 L 0,0 z" id="path3246" style="fill:#062849;fill-opacity:1;fill-rule:nonzero;stroke:none"/>
    </g>
    <g transform="matrix(1.25,0,0,-1.25,604.80447,713.48784)" id="g3248">
      <path d="m 0,0 c -2.145,0 -3.317,0.976 -3.317,2.927 l 0,12.987 15.418,0 -2.039,5.455 -13.379,0 0,12.594 c 0,1.562 0.879,1.949 2.149,1.949 l 16.688,0 0,3.127 -20.006,0 c -7.029,0 -7.613,-4.492 -7.613,-8.686 l 0,-6.902 6.45,-4.394 -6.45,-4.197 0,-10.565 c 0,-5.464 2.537,-7.415 6.732,-7.415 l 20.798,0 0,3.12 L 0,0 z" id="path3250" style="fill:#062849;fill-opacity:1;fill-rule:nonzero;stroke:none"/>
    </g>
  </g>
</svg>