<?xml version="1.0" encoding="UTF-8"?>
<svg width="111.51mm" height="24.054mm" version="1.1" viewBox="0 0 111.51 24.054" xmlns="http://www.w3.org/2000/svg">
 <g transform="translate(-18.159 -21.223)">
  <g transform="translate(6.825 -91.822)" style="shape-inside:url(#rect12);white-space:pre">
   <path d="m36.48 131.26q0.3302 0 0.508 0.3048 0.2032 0.3048 0.2032 0.8382 0 0.9906-0.4826 1.5748-2.5146 3.0734-5.3594 3.0734-2.4638 0-3.937-1.905t-1.4732-5.461q0-0.8636 0.0762-1.7272-1.6764 0.3048-3.6576 0.4572-1.3208 0.1016-1.8034 0.127-0.508 2.5908-1.4224 6.35-0.5334 2.2098-2.032 2.2098-1.6256 0-1.6256-1.4732 0-0.3302 0.127-0.9144 0.8636-3.4798 1.3716-5.8928l-1.2192 0.0508q-0.8382 0-1.2192-0.2794-0.381-0.3048-0.381-0.9652 0-0.8382 0.4826-1.2192 0.4826-0.4064 1.6002-0.4572l1.3462-0.0508q0.6604-3.5814 0.6604-5.461 0-1.1938-0.3556-1.6256t-0.9398-0.4318q-1.778 0-4.0132 2.9718-0.3302 0.4318-0.7366 0.4318-0.3556 0-0.6096-0.3302t-0.254-0.8382q0-0.7874 0.635-1.6764 1.1176-1.5494 2.8194-2.54 1.7018-1.016 3.4544-1.016 1.651 0 2.54 1.143 0.9144 1.1176 0.9144 3.5052 0 2.1082-0.6096 5.715l2.4892-0.127q1.6002-0.0762 2.7432-0.254 0.4572-2.794 1.397-5.2324t2.3368-3.9624 3.1242-1.524q1.27 0 2.0066 1.016 0.7366 0.9906 0.7366 2.6162 0 6.2992-6.4262 8.7376-0.0762 1.016-0.0762 2.1082 0 2.667 0.6604 3.7846t1.8542 1.1176q1.0414 0 1.905-0.5334 0.8636-0.5588 1.9558-1.8796 0.3048-0.3556 0.6858-0.3556zm-3.429-14.402q-0.5588 0-1.1938 1.016-0.6096 1.016-1.1684 2.7686t-0.889 3.8354q2.032-0.8382 2.9972-2.3876t0.9652-3.9878q0-0.5842-0.2032-0.9144t-0.508-0.3302z"/>
   <path d="m49.764 131.26q0.3302 0 0.508 0.3048 0.2032 0.3048 0.2032 0.8382 0 1.016-0.4826 1.5748-0.9398 1.143-2.667 2.1082-1.7018 0.9652-3.6576 0.9652-2.667 0-4.1402-1.4478-1.4732-1.4478-1.4732-3.9624 0-1.7526 0.7366-3.2512 0.7366-1.524 2.032-2.413 1.3208-0.889 2.9718-0.889 1.4732 0 2.3622 0.889 0.889 0.8636 0.889 2.3622 0 1.7526-1.27 3.0226-1.2446 1.2446-4.2418 1.9812 0.635 1.1684 2.413 1.1684 1.143 0 2.5908-0.7874 1.4732-0.8128 2.54-2.1082 0.3048-0.3556 0.6858-0.3556zm-6.4008-3.683q-0.9398 0-1.6002 1.0922-0.635 1.0922-0.635 2.6416v0.0508q1.4986-0.3556 2.3622-1.0668t0.8636-1.651q0-0.4826-0.2794-0.762-0.254-0.3048-0.7112-0.3048z"/>
   <path d="m58.044 131.26q0.3302 0 0.508 0.3048 0.2032 0.3048 0.2032 0.8382 0 1.016-0.4826 1.5748-1.0922 1.3462-2.3876 2.2098-1.27 0.8636-2.8956 0.8636-2.2352 0-3.3274-2.032-1.0668-2.032-1.0668-5.2578 0-3.0988 0.7874-7.0612 0.8128-3.9624 2.3622-6.8072 1.5748-2.8448 3.7338-2.8448 1.2192 0 1.905 1.143 0.7112 1.1176 0.7112 3.2258 0 3.0226-1.6764 7.0104t-4.5466 7.8994q0.1778 1.0414 0.5842 1.4986 0.4064 0.4318 1.0668 0.4318 1.0414 0 1.8288-0.5842 0.7874-0.6096 2.0066-2.0574 0.3048-0.3556 0.6858-0.3556zm-3.1242-15.697q-0.5842 0-1.3208 2.1082t-1.2954 5.2324-0.6096 5.9944q1.8034-2.9718 2.8702-5.9436 1.0668-2.9972 1.0668-5.461 0-1.9304-0.7112-1.9304z"/>
   <path d="m66.325 131.26q0.3302 0 0.508 0.3048 0.2032 0.3048 0.2032 0.8382 0 1.016-0.4826 1.5748-1.0922 1.3462-2.3876 2.2098-1.27 0.8636-2.8956 0.8636-2.2352 0-3.3274-2.032-1.0668-2.032-1.0668-5.2578 0-3.0988 0.7874-7.0612 0.8128-3.9624 2.3622-6.8072 1.5748-2.8448 3.7338-2.8448 1.2192 0 1.905 1.143 0.7112 1.1176 0.7112 3.2258 0 3.0226-1.6764 7.0104t-4.5466 7.8994q0.1778 1.0414 0.5842 1.4986 0.4064 0.4318 1.0668 0.4318 1.0414 0 1.8288-0.5842 0.7874-0.6096 2.0066-2.0574 0.3048-0.3556 0.6858-0.3556zm-3.1242-15.697q-0.5842 0-1.3208 2.1082t-1.2954 5.2324-0.6096 5.9944q1.8034-2.9718 2.8702-5.9436 1.0668-2.9972 1.0668-5.461 0-1.9304-0.7112-1.9304z"/>
   <path d="m77.932 129.12q0.3302 0 0.508 0.3302t0.1778 0.8382q0 1.2192-0.7366 1.4478-1.524 0.5334-3.3528 0.6096-0.4826 2.1336-1.905 3.429-1.4224 1.27-3.2258 1.27-1.524 0-2.6162-0.7366-1.0668-0.7366-1.6256-1.9558t-0.5588-2.6416q0-1.9304 0.7366-3.429 0.7366-1.524 2.032-2.3622 1.2954-0.8636 2.8702-0.8636 1.9304 0 3.0988 1.3462 1.1938 1.3208 1.397 3.2766 1.1938-0.0762 2.8448-0.508 0.2032-0.0508 0.3556-0.0508zm-8.3312 5.2324q0.8128 0 1.397-0.6604 0.6096-0.6604 0.8128-1.905-0.7874-0.5334-1.2192-1.397-0.4064-0.8636-0.4064-1.8288 0-0.4064 0.0762-0.8128h-0.127q-1.016 0-1.7018 0.9906-0.6604 0.9652-0.6604 2.7432 0 1.397 0.5334 2.1336 0.5588 0.7366 1.2954 0.7366z"/>
   <path d="m94.392 132.3q0.381-0.1524 0.635-0.1524 0.4064 0 0.6096 0.3048t0.2032 0.7874q0 0.762-0.381 1.2954-0.3556 0.5334-1.2446 0.9652-1.4986 0.7112-3.8862 1.143-2.3876 0.4064-4.699 0.4064-3.2004 0-5.3594-0.7112-2.159-0.7366-3.2258-2.0066-1.0414-1.27-1.0414-2.8702 0-2.1844 1.397-3.7084 1.4224-1.5494 4.1656-2.2352-1.4986-0.4318-2.3114-1.524-0.7874-1.0922-0.7874-2.4384 0-1.8288 1.143-3.2258 1.1684-1.4224 3.1242-2.1844t4.2926-0.762q3.1496 0 4.7244 1.3716 1.5748 1.3462 1.5748 3.5052 0 1.4986-0.5588 2.4384-0.5334 0.9144-1.5494 0.9144-0.7112 0-1.1176-0.3048-0.4064-0.3302-0.4064-0.9652 0-0.4318 0.127-0.9398 0.127-0.8382 0.127-1.143 0-0.9144-0.6858-1.4732-0.6858-0.5842-2.286-0.5842-2.159 0-3.4544 0.9144t-1.2954 2.4638q0 1.1938 0.9652 1.9812 0.9906 0.762 3.2004 0.8382 0.5588 0.0254 0.7874 0.254t0.2286 0.762q0 1.6764-1.524 1.7018-2.1082 0.0508-3.5052 0.5842-1.3716 0.5334-2.0066 1.3716-0.6096 0.8128-0.6096 1.7526 0 1.5748 1.4732 2.3876 1.4732 0.7874 4.6736 0.7874 2.1082 0 4.445-0.4826 2.3622-0.508 4.0386-1.2192z"/>
   <path d="m107.78 131.26q0.3302 0 0.508 0.3048 0.2032 0.3048 0.2032 0.8382 0 1.016-0.4826 1.5748-1.0414 1.27-2.286 2.1844-1.2446 0.889-2.4638 0.889-1.9304 0-2.9464-2.2606-1.0668 1.3462-1.8796 1.8034-0.7874 0.4572-1.8542 0.4572-1.5494 0-2.5654-1.143-0.9906-1.1684-0.9906-3.0226 0-2.032 0.8636-3.7592 0.8636-1.7526 2.3622-2.8448 1.524-1.1176 3.4036-1.3208 0.4826-4.9276 1.8288-8.4074 1.3716-3.5052 3.5814-3.5052 1.0922 0 1.8034 0.9906 0.7366 0.9906 0.7366 2.9972 0 2.8448-1.397 6.6548t-3.7338 7.8232q0.1016 1.4732 0.4318 2.1082 0.3556 0.635 0.889 0.635 0.6858 0 1.397-0.6096t1.905-2.032q0.3048-0.3556 0.6858-0.3556zm-2.9972-15.723q-0.4826 0-0.9652 1.7272-0.4826 1.7018-0.8382 4.4704-0.3302 2.7686-0.4826 5.7912 2.8448-6.1976 2.8448-9.9568 0-0.9652-0.1778-1.4986-0.1524-0.5334-0.381-0.5334zm-7.3152 18.948q0.4826 0 0.9652-0.381 0.4826-0.4064 1.2192-1.4732-0.254-1.3716-0.254-3.0734 0-0.6096 0.0508-1.9812-1.397 0.4318-2.3368 1.8796-0.9144 1.4224-0.9144 3.175 0 1.8542 1.27 1.8542z"/>
   <path d="m109.76 123.41q-1.0668 0-1.6002-0.4826-0.5334-0.508-0.5334-1.397t0.6858-1.4732q0.7112-0.6096 1.7526-0.6096 0.9398 0 1.524 0.4572t0.5842 1.2954q0 1.016-0.6604 1.6256-0.6604 0.5842-1.7526 0.5842zm-0.2032 13.64q-1.651 0-2.413-1.1684-0.7366-1.1684-0.7366-3.0988 0-1.143 0.2794-2.921 0.3048-1.8034 0.762-3.3528 0.2286-0.8128 0.6096-1.1176t1.2192-0.3048q1.2954 0 1.2954 0.8636 0 0.635-0.4826 2.9464-0.6096 2.794-0.6096 3.7846 0 0.762 0.2032 1.1684t0.6858 0.4064q0.4572 0 1.143-0.635t1.8288-2.0066q0.3048-0.3556 0.6858-0.3556 0.3302 0 0.508 0.3048 0.2032 0.3048 0.2032 0.8382 0 1.016-0.4826 1.5748-2.5146 3.0734-4.699 3.0734z"/>
   <path d="m116.87 127.5q-0.0508 1.27-0.0508 1.9812 0 1.8288 0.1778 2.8702 0.2032 1.016 0.635 1.4732 0.4572 0.4318 1.2446 0.4318 0.4064 0 0.9652-0.254t1.016-0.6604q0.2794-0.254 0.5588-0.254 0.3048 0 0.4826 0.3556 0.2032 0.3302 0.2032 0.8128t-0.2032 0.9398q-0.1778 0.4572-0.5588 0.762-1.3208 1.0922-2.9972 1.0922-2.413 0-3.5306-2.0066-1.1176-2.032-1.1176-5.2832 0-1.1176 0.0762-2.2606h-0.9906q-0.762 0-1.0414-0.2794-0.254-0.2794-0.254-0.889 0-1.4224 1.143-1.4224h1.4478q0.4318-2.794 1.3208-5.1054t2.1336-3.683q1.27-1.3716 2.7178-1.3716 1.0668 0 1.6764 0.9398t0.6096 2.3622q0 3.937-3.302 6.858h2.8448q0.4064 0 0.5842 0.1778t0.1778 0.6604q0 1.7526-2.8702 1.7526zm2.6924-10.312q-0.381 0-0.8636 0.9652-0.4572 0.9398-0.889 2.6416-0.4064 1.6764-0.6858 3.7338 1.4986-1.2954 2.2352-2.8956 0.762-1.6256 0.762-2.9464 0-1.4986-0.5588-1.4986z"/>
  </g>
 </g>
</svg>
