<?xml version="1.0" encoding="UTF-8"?>
<svg width="500" height="103.22" version="1.1" viewBox="0 0 500 103.22" xml:space="preserve" xmlns="http://www.w3.org/2000/svg">
<g transform="scale(1.0261)" fill="#2d2d80"><path class="st0" d="m68.3 83.4c-5.4-3.7-11.8-5.7-18.3-5.7-8.7 0-16.9 3.2-22.9 9.1-3.2 3.2-5.7 6.9-7.3 11.2l-0.7 1.7h14.1l0.4-0.6c0.7-1.1 1.6-2.2 2.6-3.1 3.6-3.5 8.5-5.5 13.9-5.5 6.5 0 12.5 3.2 16.2 8.6l0.4 0.5h14.2l-0.9-1.6c-2.4-5.9-6.5-10.9-11.7-14.6"/><path class="st0" d="m12.9 27.2c-3.2-3.2-6.9-5.7-11.2-7.3l-1.7-0.7v14.1l0.6 0.4c1.1 0.7 2.2 1.6 3.1 2.6 3.5 3.6 5.5 8.5 5.5 13.9 0 6.5-3.2 12.5-8.6 16.2l-0.6 0.3v14.2l1.7-0.7c5.9-2.4 11-6.5 14.6-11.7 3.7-5.5 5.7-11.8 5.7-18.4 0-8.7-3.2-16.9-9.1-22.9"/><path class="st0" d="m31.7 16.6c5.4 3.7 11.8 5.7 18.3 5.7 8.7 0 16.9-3.2 22.9-9.1 3.2-3.2 5.7-6.9 7.3-11.2l0.7-1.7h-14.1l-0.4 0.6c-0.7 1.1-1.6 2.1-2.5 3.1-3.6 3.5-8.6 5.4-13.9 5.4-6.5 0-12.5-3.2-16.2-8.6l-0.4-0.6h-14.2l0.7 1.8c2.4 5.9 6.5 11 11.8 14.6"/><path class="st0" d="m99.4 33.8 0.5-0.4v-14.2l-1.7 0.7c-5.9 2.4-11 6.5-14.6 11.7-3.7 5.4-5.7 11.8-5.7 18.4 0 8.7 3.2 16.9 9.1 22.9 3.2 3.2 6.9 5.7 11.2 7.3l1.7 0.7v-14.1l-0.6-0.4c-1.1-0.7-2.2-1.6-3.1-2.6-3.5-3.6-5.5-8.5-5.5-13.9 0.1-6.4 3.3-12.5 8.7-16.1"/><path class="st0" d="m62.7 50.1c0 7.1-5.8 12.9-12.9 12.9s-12.8-5.8-12.8-12.9 5.8-12.9 12.9-12.9c7 0.1 12.8 5.8 12.8 12.9"/><path class="st0" d="m140.1 29.9c-1.7-1.8-2.6-4-2.6-6.7v-23h-8v23c0 4.7 1.6 8.7 4.8 11.8 3.2 3.2 7.2 4.8 12 4.8s8.9-1.6 12-4.8c3.2-3.2 4.8-7.1 4.8-11.8v-23h-8v23c0 2.6-0.9 4.9-2.6 6.7s-3.8 2.7-6.2 2.7-4.5-0.9-6.2-2.7"/><path class="st0" d="m188.4 19.9c1 1 1.5 2.4 1.5 4.2v14.9h7.2v-15.8c0-3.6-1-6.5-2.9-8.6s-4.5-3.2-7.5-3.2c-1.5 0-2.9 0.4-4.2 1.1s-2.2 1.3-2.6 1.7-0.7 0.8-0.9 1.1l-0.3 0.4v-3.7h-7.2v27h7.2v-14c0-2.1 0.5-3.7 1.6-4.9 1-1.1 2.4-1.7 4.2-1.7 1.5-0.1 2.9 0.5 3.9 1.5"/><path class="st0" d="m208.4 8c1.3 0 2.4-0.4 3.1-1.1 0.8-0.7 1.1-1.7 1.1-2.9s-0.4-2.2-1.1-2.9c-0.8-0.7-1.8-1.1-3.1-1.1-1.2 0-2.2 0.4-2.9 1.1s-1.1 1.7-1.1 2.9 0.4 2.2 1.1 2.9c0.7 0.8 1.6 1.1 2.9 1.1"/><rect class="st0" x="204.9" y="12" width="7.2" height="27"/><polygon class="st0" points="226.9 39 234.4 39 244.6 12 237.2 12 230.6 30.4 230.5 30 224.1 12 216.7 12"/><path class="st0" d="m265.6 39c1.3-0.3 2.4-0.7 3.2-1.1s1.6-0.9 2.4-1.4c0.7-0.5 1.2-0.9 1.4-1.1l0.4-0.4-3.7-4.7-0.7 0.7c-0.5 0.6-1.3 1.1-2.6 1.7-1.2 0.6-2.6 0.8-4 0.8-2 0-3.7-0.5-5-1.6-1.3-1-2.1-2.3-2.4-3.9v-0.2h19.8l0.3-2.9c0-3.8-1.3-7.1-3.8-9.6-2.5-2.6-5.8-3.9-9.6-3.9s-7.2 1.4-9.9 4.1-4.1 6.1-4.1 9.9 1.4 7.2 4.2 9.9 6.2 4.1 10.1 4.1c1.3 0.1 2.7-0.1 4-0.4m-10.9-16.4c0.5-1.5 1.3-2.8 2.4-3.7s2.5-1.4 4.2-1.4c1.6 0 3 0.5 4.2 1.5 1.1 1 1.8 2.2 2.1 3.7v0.2h-13z"/><path class="st0" d="m296.7 18.8v-7.1h-0.9c-1.5 0-2.9 0.3-4.2 1s-2.2 1.2-2.6 1.6-0.7 0.7-0.9 1l-0.3 0.3v-3.6h-7.2v27h7.2v-13c0-2.4 0.6-4.2 1.8-5.5s2.8-1.9 4.8-1.9c1 0 1.8 0.1 2.3 0.2"/><path class="st0" d="m319.4 26.9c-0.8-1.1-1.9-1.9-3.1-2.4s-2.5-1-3.7-1.3c-1.2-0.4-2.3-0.8-3.2-1.3s-1.4-1.1-1.4-1.9c0-0.6 0.3-1.2 1-1.7 0.6-0.5 1.5-0.7 2.5-0.7 0.8 0 1.7 0.2 2.5 0.6s1.3 0.8 1.6 1c0.2 0.2 0.3 0.3 0.4 0.5l3.7-4.2-0.9-0.9c-0.6-0.6-1.7-1.3-3.2-2-1.6-0.7-3.3-1-5.1-1-2.9 0-5.4 0.9-7.4 2.6s-3 3.7-3 5.8c0 1.6 0.4 3 1.2 4.1s1.9 1.9 3.1 2.4 2.5 1 3.7 1.3c1.3 0.4 2.3 0.8 3.2 1.3s1.4 1.2 1.4 2-0.3 1.5-1 1.9c-0.6 0.5-1.6 0.7-2.8 0.7-1.1 0-2.2-0.3-3.2-0.9s-1.7-1-2-1.4c-0.2-0.3-0.4-0.5-0.6-0.7l-4 3.9 0.3 0.5c0.3 0.3 0.7 0.7 1.3 1.2s1.3 1 2.1 1.4c0.8 0.5 1.9 0.9 3.1 1.2 1.3 0.3 2.7 0.5 4.1 0.5 3.3 0 6-0.8 7.8-2.4 1.9-1.6 2.8-3.6 2.8-6 0-1.6-0.4-3-1.2-4.1"/><path class="st0" d="m330.2 8c1.3 0 2.4-0.4 3.1-1.1 0.8-0.7 1.1-1.7 1.1-2.9s-0.4-2.2-1.1-2.9c-0.8-0.7-1.8-1.1-3.1-1.1-1.2 0-2.2 0.4-2.9 1.1s-1.1 1.7-1.1 2.9 0.4 2.2 1.1 2.9c0.7 0.8 1.7 1.1 2.9 1.1"/><rect class="st0" x="326.8" y="12" width="7.2" height="27"/><path class="st0" d="m355 33.2c-1 0-1.8-0.3-2.5-0.9s-1-1.4-1-2.3v-11h5.5v-6.4h-5.5v-8.7h-6.4v4.8c0 1.1-0.3 2-0.9 2.7s-1.4 1.1-2.3 1.1h-2.3v6.4h4.7v11.3c0 6.3 2.8 9.3 8.5 9.3h0.2c1.7 0 3.3-0.3 4.7-0.8v-6.1h-0.1c-0.2 0.1-0.6 0.2-1.1 0.3-0.5 0.2-1 0.3-1.5 0.3"/><path class="st0" d="m374.5 11.4c-3.8 0-7.2 1.4-9.9 4.1s-4.1 6.1-4.1 9.9 1.4 7.2 4.2 9.9 6.2 4.1 10.1 4.1c1.4 0 2.8-0.2 4.1-0.5s2.4-0.7 3.2-1.1 1.6-0.9 2.3-1.4 1.2-0.9 1.4-1.1l0.4-0.4-3.7-4.7-0.7 0.7c-0.5 0.6-1.4 1.1-2.6 1.7s-2.6 0.8-4 0.8c-2 0-3.7-0.5-5-1.6-1.3-1-2.1-2.3-2.4-3.9v-0.2h19.8l0.3-2.9c0-3.8-1.3-7.1-3.8-9.6s-5.8-3.8-9.6-3.8m-6.6 11.5 0.1-0.2c0.5-1.5 1.3-2.8 2.4-3.7s2.5-1.4 4.2-1.4c1.6 0 3 0.5 4.2 1.5 1.1 1 1.8 2.2 2.1 3.7v0.2h-13z"/><polygon class="st0" points="372 8 377.8 8 383.6 0 376.3 0"/><path class="st0" d="m157.4 90.2-0.9 0.8c-0.6 0.5-1.6 1.1-3.1 1.6s-3.1 0.8-4.8 0.8c-3.7 0-6.8-1.3-9.3-3.7-2.5-2.5-3.7-5.6-3.7-9.3s1.3-6.8 3.7-9.3c2.5-2.5 5.6-3.7 9.3-3.7 1.3 0 2.7 0.2 3.9 0.6 1.3 0.4 2.3 0.9 3.1 1.4s1.5 1.1 2.2 1.7 1.1 1.1 1.3 1.4l0.1 0.1c0.1 0.1 0.2 0.3 0.3 0.4l5.1-5.1-0.5-0.7c-0.4-0.5-1-1.1-1.9-1.9s-2-1.5-3.1-2.3c-1.2-0.7-2.7-1.4-4.5-1.9s-3.8-0.8-5.8-0.8c-5.9 0-10.9 2-14.9 5.9s-6.1 8.7-6.1 14.2 2 10.3 6.1 14.3c4 3.9 9.1 5.9 14.9 5.9 2 0 4.1-0.3 6-0.8s3.5-1.1 4.7-1.8 2.3-1.4 3.4-2.3 1.8-1.5 2.1-1.8 0.5-0.6 0.6-0.7v-14.3h-15v5.8h7v5.5z"/><path class="st0" d="m181.9 92.1c-1-1-1.6-2.3-1.6-3.9v-15.5h-7.2v16.2c0 3.4 1 6.2 2.9 8.3 1.9 2 4.4 3.1 7.5 3.1 1.5 0 2.9-0.3 4.2-0.9s2.2-1.1 2.6-1.4l1.2-1.2v3.1h7.2v-27h-7.2v14.3c0 2.1-0.5 3.7-1.6 4.8-1 1.1-2.4 1.7-4.2 1.7-1.4-0.1-2.8-0.6-3.8-1.6"/><path class="st0" d="m221.7 85.2c-1.2-0.5-2.5-1-3.7-1.3-1.2-0.4-2.3-0.8-3.1-1.3-0.9-0.5-1.4-1.2-1.4-1.9 0-0.6 0.3-1.2 1-1.7 0.6-0.5 1.5-0.7 2.5-0.7 0.8 0 1.7 0.2 2.5 0.6s1.3 0.8 1.6 1c0.2 0.2 0.3 0.3 0.4 0.5l3.7-4.2-0.9-0.9c-0.6-0.6-1.7-1.3-3.3-2s-3.3-1-5.1-1c-2.9 0-5.4 0.9-7.4 2.6s-3 3.7-3 5.8c0 1.6 0.4 3 1.2 4.1s1.9 1.9 3.1 2.4 2.5 1 3.7 1.3c1.3 0.4 2.3 0.8 3.2 1.3s1.4 1.2 1.4 2-0.3 1.5-1 1.9c-0.6 0.5-1.6 0.7-2.8 0.7-1.1 0-2.2-0.3-3.2-0.9s-1.7-1-2-1.4c-0.2-0.3-0.4-0.5-0.6-0.7l-4 3.9 0.3 0.5c0.3 0.3 0.7 0.7 1.3 1.2s1.3 1 2.1 1.4c0.8 0.5 1.9 0.9 3.1 1.2 1.3 0.3 2.7 0.5 4.1 0.5 3.3 0 6-0.8 7.9-2.4s2.8-3.6 2.8-6c0-1.7-0.4-3.1-1.2-4.2-1-1-2-1.8-3.2-2.3"/><path class="st0" d="m242.6 93c-0.7-0.6-1-1.4-1-2.3v-11h5.6v-6.4h-5.6v-8.6h-6.4v4.8c0 1.1-0.3 2-0.9 2.7s-1.4 1.1-2.3 1.1h-2.3v6.4h4.7v11.3c0 6.3 2.8 9.3 8.5 9.3h0.2c1.7 0 3.3-0.3 4.7-0.8v-6.1h-0.1c-0.2 0.1-0.6 0.2-1.1 0.3s-1 0.2-1.5 0.2c-1 0-1.9-0.3-2.5-0.9"/><path class="st0" d="m264 72.2c-1.3 0-2.6 0.2-3.8 0.6s-2.3 0.8-3 1.3c-0.7 0.4-1.5 1-2.1 1.6-0.7 0.6-1.1 1-1.3 1.2v0.1c-0.1 0.2-0.2 0.3-0.3 0.4l3.9 3.9 0.5-0.5c0.4-0.5 1.2-1 2.2-1.5s2.2-0.7 3.4-0.7c1.5 0 2.7 0.4 3.6 1.1 0.9 0.8 1.3 1.7 1.3 2.9v0.1h-0.1l-8.7 1.6c-2.5 0.4-4.4 1.4-5.8 2.9-1.4 1.4-2.1 3.3-2.1 5.5 0 2.1 0.8 3.9 2.5 5.4s3.9 2.2 6.5 2.2c1.4 0 2.7-0.3 4-0.9s2.1-1.1 2.5-1.4l1.2-1.2v3.1h7.2v-17c0-3.1-1.1-5.6-3.2-7.6-2.2-2.1-5-3.1-8.4-3.1m4.4 16c0 2-0.5 3.5-1.6 4.6-1 1.1-2.4 1.7-4.2 1.7-2.5 0-3.8-1-3.8-2.9 0-1.8 1.1-2.9 3.2-3.2l6.3-1.2v1z"/><polygon class="st0" points="307.7 72.7 300.3 72.7 293.8 91.2 293.6 90.8 287.3 72.7 279.8 72.7 290 99.7 297.6 99.7"/><path class="st0" d="m324.4 72.2c-3.8 0-7.2 1.4-9.9 4.1s-4.1 6.1-4.1 9.9 1.4 7.2 4.2 9.9 6.2 4.1 10.1 4.1c1.4 0 2.8-0.2 4.1-0.5s2.4-0.7 3.2-1.1 1.6-0.9 2.3-1.4c0.8-0.6 1.2-0.9 1.4-1.1l0.4-0.4-3.7-4.7-0.7 0.7c-0.5 0.6-1.3 1.1-2.6 1.7-1.2 0.6-2.6 0.8-4 0.8-2 0-3.7-0.5-5-1.6-1.3-1-2.1-2.3-2.4-3.9v-0.2h19.8l0.3-2.9c0-3.8-1.3-7.1-3.8-9.6s-5.8-3.8-9.6-3.8m-6.7 11.4 0.1-0.2c0.5-1.5 1.3-2.8 2.4-3.7s2.5-1.4 4.2-1.4c1.6 0 3 0.5 4.2 1.5 1.1 1 1.8 2.2 2.1 3.7v0.2h-13z"/><polygon class="st0" points="385.2 68.2 385.2 61 356.8 61 356.8 99.7 385.7 99.7 385.7 92.6 364.8 92.6 364.8 83.6 380.7 83.6 380.7 76.4 364.8 76.4 364.8 68.2"/><rect class="st0" x="392.4" y="72.7" width="7.2" height="27"/><path class="st0" d="m395.9 60.8c-1.2 0-2.2 0.4-2.9 1.1s-1.1 1.7-1.1 2.9 0.4 2.2 1.1 2.9 1.7 1.1 2.9 1.1c1.3 0 2.4-0.4 3.1-1.1 0.8-0.7 1.1-1.7 1.1-2.9s-0.4-2.2-1.1-2.9c-0.7-0.8-1.8-1.1-3.1-1.1"/><path class="st0" d="m399 67.7c-0.8 0.7-1.8 1.1-3.1 1.1-1.2 0-2.2-0.4-2.9-1.1s-1.1-1.7-1.1-2.9 0.4-2.2 1.1-2.9 1.7-1.1 2.9-1.1c1.3 0 2.4 0.4 3.1 1.1 0.8 0.7 1.1 1.7 1.1 2.9s-0.3 2.2-1.1 2.9"/><path class="st0" d="m420 60.7c-0.8-0.1-1.7-0.2-2.4-0.2-5.7 0-8.5 3-8.5 9.3v3.8h-3.9v6.4h3.9v19.8h7.2v-19.9h6.1v-6.4h-6.1v-3.5c0-0.9 0.3-1.7 1-2.3s1.5-0.9 2.5-0.9 1.9 0.2 2.6 0.5v-6l-0.5-0.2c-0.4-0.1-1-0.2-1.9-0.4"/><path class="st0" d="m440.4 60.7c-0.8-0.1-1.7-0.2-2.4-0.2-5.7 0-8.5 3-8.5 9.3v3.8h-3.9v6.4h3.9v19.8h7.2v-19.9h6.1v-6.4h-6.1v-3.5c0-0.9 0.3-1.7 1-2.3s1.5-0.9 2.5-0.9 1.9 0.2 2.6 0.5v-6l-0.5-0.2c-0.5-0.1-1.1-0.2-1.9-0.4"/><path class="st0" d="m460.5 72.2c-3.8 0-7.2 1.4-9.9 4.1s-4.1 6.1-4.1 9.9 1.4 7.2 4.2 9.9 6.2 4.1 10.1 4.1c1.4 0 2.8-0.2 4.1-0.5s2.4-0.7 3.2-1.1 1.6-0.9 2.3-1.4c0.8-0.6 1.2-0.9 1.4-1.1l0.4-0.4-3.7-4.7-0.7 0.7c-0.5 0.6-1.3 1.1-2.6 1.7-1.2 0.6-2.6 0.8-4 0.8-2 0-3.7-0.5-5-1.6-1.3-1-2.1-2.3-2.4-3.9v-0.2h19.8l0.3-2.9c0-3.8-1.3-7.1-3.8-9.6-2.6-2.5-5.8-3.8-9.6-3.8m-6.7 11.4 0.1-0.2c0.5-1.5 1.3-2.8 2.4-3.7s2.5-1.4 4.2-1.4c1.6 0 3 0.5 4.2 1.5 1.1 1 1.8 2.2 2.1 3.7v0.2h-13z"/><rect class="st0" x="480.1" y="61" width="7.2" height="38.7"/></g>
</svg>
